<svg xmlns="http://www.w3.org/2000/svg" shape-rendering="geometricPrecision" text-rendering="geometricPrecision" image-rendering="optimizeQuality" fill-rule="evenodd" clip-rule="evenodd" viewBox="0 0 512 467.038"><path fill="#2D2222" fill-rule="nonzero" d="M16.725 230.27h86.559c9.2 0 16.725 7.536 16.725 16.721v1.713l12.05-.014c63.732-.22 80.085-.266 144.203 39.975h52.866l.606.039c8.199.556 15.303 3.464 20.534 7.766 4.121 3.387 7.117 7.671 8.624 12.395 1.539 4.823 1.532 10.061-.369 15.239-2.039 5.542-6.262 11.001-13.1 15.714-10.245 7.5-22.033 11.036-34.651 12.373-12.143 1.284-25.048.51-38.085-.653-4.146-.202-6.802 1.437-7.954 3.646a6.496 6.496 0 00-.727 2.848 6.682 6.682 0 00.606 2.936c1.092 2.366 3.823 4.231 8.313 4.249l.329.014c3.377.248 7.065-.117 10.654-.465 2.851-.28 5.663-.557 8.494-.56 15.522-.011 29.622-1.486 41.659-5.965 11.589-4.312 21.384-11.505 28.832-23.02l7.982-18.636a4.658 4.658 0 012.235-2.362l80.598-39.96.61-.248c13.81-4.558 26.473-3.164 36.382 1.893 6.501 3.313 11.824 8.221 15.519 14.076 3.709 5.866 5.784 12.707 5.781 19.859-.004 10.115-4.146 20.807-13.654 30.198l-.535.454c-29.244 21.285-58.941 40.726-89.053 58.412-30.027 17.636-60.374 33.478-91.007 47.61-45.933 27.828-91.851 26.888-137.745.007l-59.997-30.928c-.011 9.196-7.543 16.7-16.725 16.7H16.725C7.539 432.296 0 424.767 0 415.575V246.991c0-9.181 7.536-16.721 16.725-16.721z"/><path fill="#DBA47B" fill-rule="nonzero" d="M121.147 258.074v147.578l63.37 32.68c42.858 25.183 85.713 26.094 128.532.092l.567-.312a1029.572 1029.572 0 0090.411-47.269c29.63-17.406 58.983-36.62 88.021-57.739 7.376-7.401 10.603-15.607 10.603-23.261 0-5.333-1.56-10.461-4.347-14.873-2.795-4.429-6.862-8.164-11.852-10.707-7.774-3.964-17.828-5.032-28.967-1.429l-78.68 39.011-7.444 17.373-.365.677c-8.681 13.605-20.119 22.062-33.673 27.106-13.22 4.922-28.381 6.539-44.921 6.553-2.27 0-4.909.263-7.579.525-4.057.394-8.206.802-12.264.486-8.525-.146-13.99-4.351-16.451-9.675a15.948 15.948 0 01-1.45-7.061 15.935 15.935 0 011.79-6.972c2.71-5.198 8.345-9.078 16.679-8.667l.184.018c12.579 1.128 25.006 1.887 36.51.67 11.075-1.17 21.332-4.213 30.084-10.625l.128-.089c5.167-3.539 8.284-7.447 9.695-11.288 1.157-3.149 1.174-6.308.256-9.188-.951-2.983-2.915-5.745-5.653-7.997-3.781-3.107-9.033-5.221-15.203-5.643h-54.189a4.792 4.792 0 01-2.493-.734c-62.813-39.542-78.421-39.485-140.387-39.276l-10.912.036z"/><path fill="#43494C" d="M16.725 237.402h86.559c5.277 0 9.593 4.316 9.593 9.589v168.584c0 5.277-4.316 9.589-9.593 9.589H16.725c-5.277 0-9.593-4.312-9.593-9.589V246.991c0-5.273 4.316-9.589 9.593-9.589z"/><path fill="#34393E" d="M112.877 312.04v103.534c0 5.278-4.317 9.594-9.594 9.594H16.726c-5.278 0-9.594-4.316-9.594-9.594v-21.535l105.745-81.999z"/><path fill="#427D2A" d="M163.428 0l304.327 81.544-45.249 168.871-21.549-5.67 34.706-123.517.454-1.463c2.946-10.943-3.542-22.205-14.485-25.151L157.099 23.621 163.428 0z"/><path fill="#427D2A" d="M115.539 30.105L419.87 111.65l-42.331 157.984-304.331-81.546z"/><path fill="#87CC71" d="M363.837 122.959c-3.31 11.708 4.198 25.113 16.349 28.526l-16.749 62.507c-12.797-3.602-26.2 3.907-30.098 17.868l-202.471-54.252c3.602-12.797-3.909-26.203-16.057-29.615l16.748-62.507c12.85 3.6 26.26-3.901 29.864-16.764l202.414 54.237z"/><path fill="#427D2A" d="M202.84 109.26c22.89-24.524 61.319-25.847 85.843-2.957 24.524 22.887 25.846 61.319 2.957 85.842-22.887 24.524-61.32 25.847-85.843 2.957-24.523-22.889-25.847-61.319-2.957-85.842z"/><path fill="#fff" fill-rule="nonzero" d="M223.45 139.46l5.902-7.305 13.881 3.72a5.449 5.449 0 00-.452-1.98 6.742 6.742 0 00-1.227-1.904 9.21 9.21 0 00-1.879-1.58 8.179 8.179 0 00-2.408-1.063l-10.364-2.777 5.903-7.304 39.733 10.646-5.902 7.305-9.597-2.572c.299.39.56.823.782 1.3.226.465.41.932.547 1.426.128.478.23.95.295 1.412.052.458.061.878.02 1.231l10.402 2.787-5.903 7.304-7.524-2.016c-.93 1.259-2.103 2.372-3.533 3.335-1.432.976-3.001 1.754-4.715 2.372a25.474 25.474 0 01-5.399 1.259c-1.878.224-3.72.215-5.534-.001l15.119 27.087-16.506-4.423-13.144-25.414 2.04-7.612 8.24 2.208a7.393 7.393 0 002.441.237 9.02 9.02 0 002.418-.483 8.153 8.153 0 002.1-1.053c.632-.45 1.13-.95 1.499-1.524l-17.235-4.618z"/></svg>